<svg width="57" height="60" viewBox="0 0 57 60" fill="none" xmlns="http://www.w3.org/2000/svg">
<path fill-rule="evenodd" clip-rule="evenodd" d="M0 32.9918L10.4959 0H46.4384L56.8706 32.9918L43.0738 44.6394C43.0738 44.6394 20.1534 46.392 18.6217 46.0591C17.0901 45.7261 0 32.9918 0 32.9918Z" fill="#9A9DAE"/>
<path fill-rule="evenodd" clip-rule="evenodd" d="M15.6152 18.3091L14.5935 9.1796H42.0721L40.726 19.1841L26.2841 20.4341L15.6152 18.3091Z" fill="#D1D6E1"/>
<path fill-rule="evenodd" clip-rule="evenodd" d="M12.9401 24.0982L12.1848 16.3091H44.1848L43.1637 24.1258L22.2446 28.9341L12.9401 24.0982Z" fill="#E1E3EB"/>
<path fill-rule="evenodd" clip-rule="evenodd" d="M11.0291 32.9918L10.1881 24.0982H46.3709L45.4668 32.9918L38.8748 43.5296H15.2802L11.0291 33.8139V32.9918Z" fill="#F0F1F5"/>
<path fill-rule="evenodd" clip-rule="evenodd" d="M0 32.9918H16.0437L17.9671 40.9341H38.4426L40.2554 32.9918H56.8706L52.8852 59.4662H3.23255L0 32.9918Z" fill="#C2C8D7"/>
<rect x="17.1848" y="47.9341" width="23" height="3" rx="1.5" fill="white"/>

</svg>
