<svg
  xmlns="http://www.w3.org/2000/svg"
  width="22"
  height="22"
  viewBox="0 0 22 22"
  fill="black"
  fill-rule="evenodd"
>
  <path
    d="M9.225 0c5.087 0 9.225 4.138 9.225 9.225 0 2.097-.707 4.088-1.98 5.7l-.197.239 5.496 5.497c.24.239.293.593.16.881l-.07.12-.09.108c-.15.149-.348.23-.554.23-.165 0-.325-.052-.46-.149l-.094-.081-5.498-5.497-.238.198c-1.398 1.103-3.08 1.781-4.868 1.942l-.414.028-.418.01C4.14 18.45 0 14.31 0 9.225 0 4.14 4.14 0 9.225 0zm0 1.568c-4.222 0-7.658 3.435-7.658 7.657 0 4.223 3.436 7.658 7.658 7.658s7.657-3.436 7.657-7.658-3.435-7.657-7.657-7.657z"
  />
</svg>
