<svg
  xmlns="http://www.w3.org/2000/svg"
  width="22"
  height="22"
  viewBox="0 0 22 22"
  fill="black"
  fill-rule="evenodd"
>
  <path
    d="M11.717 22h-1.425c-.448 0-.864-.23-1.1-.61-.104-.162-.736-1.22-1.057-1.847l-1.14-.47c-.696.22-1.949.533-2.056.559-.438.1-.896-.03-1.213-.347l-1.01-1.01c-.317-.317-.449-.776-.348-1.213.044-.19.344-1.384.56-2.055l-.47-1.136c-.66-.334-1.76-1.001-1.848-1.056-.38-.236-.61-.652-.61-1.1v-1.43c0-.448.23-.863.61-1.1.162-.103 1.221-.735 1.848-1.056l.468-1.136c-.22-.695-.533-1.948-.558-2.055-.1-.437.03-.896.348-1.213l1.01-1.01c.317-.317.775-.448 1.213-.347.19.044 1.384.343 2.056.559l1.135-.469C8.465 1.798 9.132.698 9.187.61h-.001c.237-.38.653-.61 1.1-.61h1.427c.448 0 .863.23 1.1.61.103.162.735 1.22 1.057 1.847l1.135.469c.696-.22 1.949-.533 2.056-.559v.001c.438-.1.895.031 1.213.347l1.01 1.01c.317.317.449.776.348 1.213-.044.19-.344 1.384-.56 2.055l.47 1.136c.66.334 1.76 1.001 1.848 1.056.38.237.61.652.61 1.1v1.426c0 .447-.23.862-.61 1.1-.162.103-1.221.735-1.848 1.056l-.46 1.14c.22.695.532 1.948.558 2.055.1.437-.03.896-.347 1.213l-1.01 1.01c-.318.317-.776.448-1.213.347-.19-.044-1.385-.343-2.056-.559l-1.136.469c-.334.66-1.001 1.76-1.056 1.848-.238.38-.655.612-1.105.61zm-4.69-4.233l1.996.83.1.22c.202.44.932 1.676 1.1 1.929.015.025.043.04.073.04h1.426c.03 0 .057-.015.072-.04.13-.207.88-1.461 1.1-1.93l.1-.22 2.003-.83.22.082c.455.168 1.844.524 2.137.594.028.008.058 0 .077-.022l1.01-1.01c.021-.02.03-.049.022-.077-.055-.236-.412-1.655-.594-2.137l-.082-.22.826-1.998.22-.099c.44-.202 1.677-.932 1.93-1.1.025-.015.04-.043.04-.073V10.28c0-.03-.015-.057-.04-.072-.207-.13-1.462-.88-1.93-1.1l-.22-.1-.83-2.002.082-.22c.167-.455.523-1.844.594-2.137.006-.027-.003-.056-.023-.076l-1.01-1.01c-.02-.022-.049-.03-.077-.023-.236.055-1.65.412-2.137.594l-.22.082-2.007-.825-.099-.22c-.203-.44-.933-1.677-1.1-1.93-.016-.025-.043-.04-.073-.04h-1.417c-.03 0-.058.015-.073.04-.13.207-.88 1.461-1.1 1.93l-.1.22-2.003.83-.22-.082c-.455-.168-1.844-.524-2.137-.594-.028-.008-.058 0-.077.022l-1.01 1.01c-.021.02-.029.05-.022.077.055.236.412 1.655.594 2.137l.082.22-.826 2.006-.22.1c-.44.202-1.677.932-1.93 1.1-.025.015-.04.043-.04.073v1.426c0 .029.015.056.04.072.207.13 1.462.88 1.93 1.1l.22.099.83 2.003-.082.22c-.167.455-.523 1.843-.594 2.136h.001c-.007.028.002.057.022.077l1.01 1.01c.02.021.049.03.077.022.236-.055 1.65-.411 2.137-.594l.222-.094zm3.977-1.629c-1.363 0-2.671-.542-3.636-1.505-.963-.965-1.505-2.272-1.505-3.635 0-1.364.542-2.67 1.505-3.635.965-.964 2.272-1.505 3.636-1.505 1.364 0 2.671.541 3.636 1.505.964.964 1.505 2.271 1.505 3.635-.002 1.362-.544 2.669-1.508 3.632-.963.964-2.27 1.505-3.633 1.508zm0-9.064v.001c-1.041 0-2.04.413-2.775 1.148-.736.736-1.149 1.734-1.149 2.775 0 1.04.413 2.039 1.15 2.774.735.736 1.733 1.149 2.774 1.149s2.04-.413 2.775-1.149c.736-.735 1.149-1.733 1.149-2.774-.001-1.04-.415-2.037-1.15-2.773-.736-.736-1.734-1.15-2.774-1.15z"
  />
</svg>
