<svg
  xmlns="http://www.w3.org/2000/svg"
  width="16"
  height="16"
  viewBox="0 0 16 16"
  fill="black"
  fill-rule="evenodd"
>
  <path
    d="M.537 11.273c.147-.002.288.057.391.161.103.104.16.247.157.394v3.084h13.83v-3.084c-.002-.145.054-.286.156-.39.102-.103.241-.162.386-.162.146 0 .285.059.387.162.101.104.158.245.156.39v3.628c0 .3-.243.544-.543.544H.543c-.3 0-.543-.244-.543-.544v-3.628c-.003-.145.052-.285.153-.39.1-.104.24-.164.384-.165zM8.003 0c.163 0 .323.06.446.182L12.22 3.93c.25.245.25.647.004.892-.246.25-.647.25-.893.004L8.635 2.15v10.1c0 .345-.283.632-.632.632-.35 0-.633-.283-.633-.633V2.15L4.677 4.825c-.25.246-.648.246-.893-.004-.246-.249-.246-.647.004-.892L7.556.182C7.68.06 7.84 0 8.003 0z"
    transform="translate(-347.000000, -675.000000) translate(0.000000, 406.000000) translate(0.000000, 251.000000) translate(347.000000, 18.000000)"
  />
</svg>
